<svg width="12" height="8" viewBox="0 0 12 8" fill="none" xmlns="http://www.w3.org/2000/svg">
<path d="M1.36364 4.36363C0.613636 4.36363 0 4.97727 0 5.72727C0 6.47727 0.613636 7.0909 1.36364 7.0909C2.11364 7.0909 2.72727 6.47727 2.72727 5.72727C2.72727 4.97727 2.11364 4.36363 1.36364 4.36363Z" fill="#CDCDCD"/>
<path d="M10.6364 4.36363C9.88636 4.36363 9.27273 4.97727 9.27273 5.72727C9.27273 6.47727 9.88636 7.0909 10.6364 7.0909C11.3864 7.0909 12 6.47727 12 5.72727C12 4.97727 11.3864 4.36363 10.6364 4.36363Z" fill="#CDCDCD"/>
<path d="M4.63636 5.72727C4.63636 4.97727 5.25 4.36363 6 4.36363C6.75 4.36363 7.36364 4.97727 7.36364 5.72727C7.36364 6.47727 6.75 7.0909 6 7.0909C5.25 7.0909 4.63636 6.47727 4.63636 5.72727Z" fill="#CDCDCD"/>
<path d="M1.36364 0C0.613636 0 0 0.613636 0 1.36364C0 2.11364 0.613636 2.72727 1.36364 2.72727C2.11364 2.72727 2.72727 2.11364 2.72727 1.36364C2.72727 0.613636 2.11364 0 1.36364 0Z" fill="#CDCDCD"/>
<path d="M10.6364 0C9.88636 0 9.27273 0.613636 9.27273 1.36364C9.27273 2.11364 9.88636 2.72727 10.6364 2.72727C11.3864 2.72727 12 2.11364 12 1.36364C12 0.613636 11.3864 0 10.6364 0Z" fill="#CDCDCD"/>
<path d="M4.63636 1.36364C4.63636 0.613636 5.25 0 6 0C6.75 0 7.36364 0.613636 7.36364 1.36364C7.36364 2.11364 6.75 2.72727 6 2.72727C5.25 2.72727 4.63636 2.11364 4.63636 1.36364Z" fill="#CDCDCD"/>
</svg>
